<?xml version="1.0" encoding="utf-8"?>
<svg baseProfile="tiny" height="1881" version="1.2" width="2656" xmlns="http://www.w3.org/2000/svg" xmlns:ev="http://www.w3.org/2001/xml-events" xmlns:xlink="http://www.w3.org/1999/xlink">
    <defs />
    <g id="polygon">
        <polygon fill="green" points="288,584 288,585 288,586 288,587 288,588 288,589 288,590 288,591 288,592 288,593 288,594 288,595 288,596 288,597 288,598 288,599 288,600 288,601 288,602 288,603 288,604 288,605 288,606 288,607 288,608 288,609 288,610 288,611 288,612 288,613 288,614 288,615 288,616 288,617 288,618 288,619 288,620 288,621 288,622 288,623 288,624 288,625 288,626 288,627 288,628 288,629 288,630 288,631 288,632 288,633 288,635 288,636 288,637 288,638 288,639 288,640 288,641 288,642 288,644 288,645 288,646 288,647 288,648 288,649 288,650 288,651 288,653 288,654 288,655 288,656 288,657 288,658 288,659 288,661 288,662 288,663 288,664 288,665 288,666 288,667 288,668 288,670 288,671 288,672 288,673 288,674 288,675 288,676 288,678 288,679 288,680 288,681 288,682 288,683 288,684 288,685 288,686 288,687 288,688 288,689 288,690 351,690 351,689 351,688 351,687 351,686 351,685 351,684 351,683 351,682 351,681 351,680 351,679 351,678 351,676 351,675 351,674 351,673 351,672 351,671 351,670 351,668 351,667 351,666 351,665 351,664 351,663 351,662 351,661 351,659 351,658 351,657 351,656 351,655 351,654 351,653 351,651 351,650 351,649 351,648 351,647 351,646 351,645 351,644 351,642 351,641 351,640 351,639 351,638 351,637 351,636 351,635 351,633 351,632 351,631 351,630 351,629 351,628 351,627 351,626 351,625 351,624 351,623 351,622 351,621 351,620 351,619 351,618 351,617 351,616 351,615 351,614 351,613 351,612 355,611 355,610 355,609 355,608 355,607 355,606 355,605 355,604 355,603 355,602 351,601 351,600 351,599 351,598 351,597 351,596 351,595 351,594 351,593 351,592 351,591 351,590 351,589 351,588 351,587 351,586 351,585 294,584 " />
    </g>
</svg>